<?xml version="1.0" encoding="UTF-8" standalone="no"?>
<svg xmlns:rdf="http://www.w3.org/1999/02/22-rdf-syntax-ns#" xmlns="http://www.w3.org/2000/svg" xml:space="preserve" height="135.25" viewBox="0 0 507.11297 135.24774" width="507.11" version="1.1" xmlns:cc="http://creativecommons.org/ns#" xmlns:xlink="http://www.w3.org/1999/xlink" xmlns:dc="http://purl.org/dc/elements/1.1/"><g transform="matrix(1.25 0 0 -1.25 -124.41 980.5)"><path d="m260.88 737.82c0-0.00001-25.747-0.00001-77.24 0" stroke="#000" stroke-miterlimit="10" fill="none"/><path d="m264.66 737.82-5.04-2.52 1.26 2.52-1.26 2.52 5.04-2.52z"/><path d="m264.66 737.82-5.04-2.52 1.26 2.52-1.26 2.52 5.04-2.52z" stroke="#000" stroke-miterlimit="10" fill="none"/><path d="m179.86 737.82 5.04 2.52-1.26-2.52 1.26-2.52-5.04 2.52z"/><path d="m179.86 737.82 5.04 2.52-1.26-2.52 1.26-2.52-5.04 2.52z" stroke="#000" stroke-miterlimit="10" fill="none"/><rect transform="scale(1,-1)" height="92.15" width="92.157" y="-784.4" x="264.96" fill="#bc1142"/><path fill="#fff" d="m298.39 773.54 0.00085-0.00037c-0.35624-0.011-0.73985-0.14265-1.175-0.48597-1.066 0.41104-2.0996 0.55384-3.0238-0.28296-1.4272 0.18511-1.8909-0.19687-2.2423-0.64281-0.3133 0.007-2.3446 0.32205-3.276-1.0673-2.3407 0.27696-3.0805-1.3768-2.2423-2.9188-0.47806-0.74004-0.97342-1.471 0.14456-2.8817-0.39549-0.78576-0.15034-1.6381 0.78127-2.6697-0.24587-1.1046 0.23759-1.8839 1.1044-2.4913-0.16212-1.5116 1.3861-2.3904 1.8484-2.7035 0.17754-0.88074 0.54758-1.7119 2.3162-2.1714 0.29166-1.3126 1.3545-1.5392 2.3838-1.8146-3.4019-1.9773-6.3192-4.579-6.2994-10.962l-0.49829-0.88888c-3.9007-2.372-7.4101-9.9957-1.9222-16.192 0.35846-1.9397 0.95959-3.333 1.4949-4.875 0.80059-6.2135 6.0256-9.1228 7.4037-9.4669 2.0194-1.5381 4.1704-2.9976 7.0809-4.0199 2.7437-2.8295 5.7161-3.9081 8.7048-3.9063 0.0438 0.00004 0.0884-0.00048 0.13227 0 2.9887-0.002 5.961 1.0767 8.7048 3.9063 2.9104 1.0223 5.0614 2.4818 7.0809 4.0199 1.3781 0.34407 6.603 3.2535 7.4037 9.4669 0.53524 1.542 1.1364 2.9353 1.4949 4.875 5.4878 6.1971 1.9784 13.821-1.9224 16.193l-0.49906 0.88887c0.0197 6.3828-2.8975 8.9843-6.2994 10.962 1.0293 0.27543 2.0922 0.50205 2.3838 1.8146 1.7685 0.45961 2.1387 1.2908 2.3162 2.1714 0.46239 0.31311 2.0107 1.192 1.8486 2.7035 0.86687 0.60742 1.3501 1.3868 1.1042 2.4913 0.93161 1.0316 1.1768 1.8839 0.78127 2.6697 1.1182 1.4102 0.62214 2.1413 0.14476 2.8813 0.83763 1.5421 0.0983 3.1958-2.2433 2.9188-0.93114 1.3893-2.9616 1.0738-3.2756 1.0673-0.35139 0.44594-0.81492 0.82792-2.2421 0.64282-0.92424 0.8368-1.9578 0.69401-3.0238 0.28296-1.2658 0.99878-2.1034 0.19814-3.0601-0.10457-1.5325 0.50074-1.8829-0.18513-2.6358-0.46443-1.6713 0.35315-2.1793-0.41571-2.9806-1.2272l-0.93198 0.0185c-2.521-1.4855-3.7731-4.5103-4.217-6.0652-0.44412 1.5553-1.6936 4.58-4.214 6.0652l-0.93198-0.0185c-0.80223 0.81148-1.31 1.5803-2.9813 1.2272-0.75298 0.2793-1.1025 0.96517-2.636 0.46443-0.62794 0.19866-1.2053 0.61163-1.8853 0.59052zm25.362-1.7847c-0.35002-0.43272-0.83894-0.85522-0.32028-1.3523 0.71488 0.45317 1.4342 0.90588 3.132 1.228-0.38259-0.43298-1.1736-0.8661-0.69399-1.2991 0.89757 0.34802 1.8906 0.60068 2.9896 0.74739-0.52617-0.43936-0.96515-0.86958-0.53385-1.2099 0.96056 0.29996 2.2837 0.70395 3.5769 0.35581l-0.81857-0.83639c-0.0909-0.11192 1.9148-0.087 3.2387-0.10668-0.48313-0.68128-0.97577-1.3389-1.2634-2.509 0.1312-0.13495 0.78731-0.06 1.4059 0-0.63428-1.3555-1.7358-1.6977-1.993-2.2777 0.38752-0.29781 0.92498-0.22019 1.5126-0.0177-0.45661-0.95499-1.4143-1.6094-2.171-2.3844 0.19135-0.13782 0.52551-0.22007 1.3169-0.12456-0.69914-0.7543-1.5437-1.444-2.5447-2.0642 0.17727-0.20793 0.78694-0.19953 1.3524-0.21338-0.90672-0.90085-2.0738-1.3681-3.1676-1.9575 0.54518-0.37809 0.93496-0.28985 1.3524-0.28469-0.77355-0.64512-2.0889-0.98061-3.31-1.37 0.23223-0.36637 0.46454-0.46653 0.96102-0.56938-1.2925-0.72606-3.1438-0.39424-3.6659-0.76527 0.12605-0.36494 0.48155-0.60235 0.90759-0.80064-2.0808-0.12263-7.7714 0.0769-8.8622 4.4486 2.1298 2.3757 6.0172 5.1637 12.703 8.6113-5.2022-1.7676-9.896-4.1238-13.824-7.3659-4.6192 2.1832-1.435 7.6895 0.81857 9.8756 0.11426-0.57727 0.24379-0.94215 0.3916-1.0498 0.73378 0.79839 1.3331 1.6161 2.2777 2.3844 0.003-0.45126-0.22421-0.94104 0.33815-1.2991 0.50641 0.69162 1.191 1.309 2.0999 1.8329-0.43778-0.76637-0.0753-0.99916 0.16013-1.3168 0.69423 0.6042 1.3536 1.2162 2.6338 1.6903zm-25.272-0.00038c1.2802-0.4741 1.9395-1.0863 2.6337-1.6905 0.23536 0.31761 0.59792 0.55041 0.16014 1.3168 0.90891-0.52386 1.5935-1.1411 2.0999-1.8327 0.56236 0.35804 0.33507 0.84762 0.33814 1.2989 0.94458-0.76832 1.5439-1.5858 2.2777-2.3842 0.14781 0.10761 0.27733 0.47249 0.3916 1.0498 2.2535-2.1861 5.4378-7.6924 0.81857-9.8756-3.9288 3.24-8.6205 5.5956-13.82 7.363 6.6828-3.4458 10.569-6.2336 12.698-8.6081-1.0908-4.3717-6.7812-4.5712-8.862-4.4486 0.42604 0.19829 0.78153 0.4357 0.90758 0.80064-0.52211 0.37103-2.3734 0.0392-3.6659 0.76527 0.49648 0.10285 0.72859 0.20302 0.96082 0.56938-1.2211 0.38943-2.5363 0.72491-3.3098 1.37 0.41747-0.005 0.80727-0.0934 1.3524 0.28469-1.0937 0.58937-2.2609 1.0566-3.1676 1.9575 0.56548 0.0139 1.1752 0.005 1.3524 0.21338-1.001 0.62013-1.8456 1.3099-2.5447 2.0642 0.79136-0.0955 1.1255-0.0132 1.3169 0.12457-0.75669 0.77499-1.7146 1.4294-2.1712 2.3844 0.58758-0.20251 1.1252-0.28013 1.5128 0.0177-0.25714 0.58005-1.3589 0.92223-1.9932 2.2777 0.61855-0.06 1.2747-0.13495 1.4059 0-0.28712 1.1696-0.77967 1.8271-1.2628 2.5084 1.3239 0.0197 3.3296-0.005 3.2387 0.10689l-0.81856 0.8362c1.2932 0.34813 2.6163-0.0559 3.5769-0.35582 0.43129 0.34031-0.008 0.77073-0.53387 1.2101 1.099-0.1467 2.092-0.39936 2.9896-0.74739 0.47958 0.43299-0.31141 0.86592-0.694 1.2989 1.6978-0.3221 2.4171-0.77461 3.132-1.2278 0.51865 0.4971 0.0297 0.9196-0.32028 1.3523zm12.188-18.008c0.11496 0.003 0.23011 0.003 0.34547-0.00059v0.00019c3.2755 0.0361 7.3313-2.444 7.315-4.7806-0.0143-2.0623-2.8485-3.7318-7.2899-3.7-4.3492 0.0519-7.2778 2.0981-7.2675 4.0964 0.009 1.5932 3.3333 4.304 6.8971 4.3846zm-10.525-1.3891c0.646-0.003 1.3101-0.0611 1.9866-0.17531 2.2786-0.38286-10.92-11.907-11.123-9.3364-0.18498 5.9721 3.8765 9.5403 9.1367 9.5117zm21.061-0.19665c5.26 0.0287 9.3219-3.5392 9.1369-9.5117-0.20344-2.5709-13.402 8.9535-11.123 9.3362 0.67646 0.11422 1.3405 0.17198 1.9864 0.17551zm-2.2233-7.1556a7.185 8.4772 34.045 0 0 0.31912 -0.004 7.185 8.4772 34.045 0 0 5.5754 -15.163 7.185 8.4772 34.045 1 0 -9.3476 14.144 7.185 8.4772 34.045 0 0 3.4531 1.0234zm-16.175-0.40061a8.4772 7.185 55.955 0 0 3.7624 -1.0165 8.4772 7.185 55.955 0 0 -9.3476 -14.144 8.4772 7.185 55.955 0 0 5.585 15.161zm28.27-4.3329c0.10052 0.002 0.20673-0.0121 0.31873-0.0421 5.9466-3.3956 4.9135-10.951 1.706-13.531-2.8248-1.2548-5.1412 13.521-2.0247 13.573zm-40.778-0.19685c3.1162-0.0513 0.80012-14.827-2.0247-13.572-3.2075 2.5796-4.2407 10.134 1.706 13.53 0.11199 0.03 0.21821 0.0437 0.31873 0.0421zm21.098-10.164a8.0111 7.3867 0 0 0 7.8193 -7.4235 8.0111 7.3867 0 1 0 -16.022 0 8.0111 7.3867 0 0 0 8.2026 7.4235zm17.515-2.7862c0.62576 0.0163 1.2114-0.15934 1.7396-0.56784 1.4222-1.4171 2.2565-6.7532-0.23338-9.9485-3.429-4.7575-8.0708-4.9427-9.8-3.6176-1.8085 1.7056-0.42808 7.0016 2.051 9.9052v0.00078c2.1277 2.4022 4.3654 4.179 6.2427 4.2279zm-36.212-1.1309c2.0649 0.0424 4.5995-1.5893 6.6539-3.9728 2.2913-2.7603 3.3359-7.6098 1.4238-9.0394-1.809-1.0913-6.2022-0.6418-9.3248 3.8436-2.1059 3.7638-1.8346 7.5938-0.35603 8.719 0.48368 0.29462 1.0251 0.43775 1.6033 0.44963zm19.156-13.215c3.1263-0.0193 6.9224-1.1454 6.9304-2.6091 0.0534-1.5162-3.9165-4.9418-7.7587-4.8755-3.9792-0.17163-7.8812 3.2594-7.8301 4.4486-0.0595 1.7436 4.8452 3.105 8.0435 3.0249 0.20113 0.009 0.40656 0.0125 0.61497 0.0111z"/><path d="m439.5 701.5c0 8.6667-7.3333 13-22 13s-22 3.8333-22 11.5-11.1 11.5-33.3 11.5" stroke="#000" stroke-miterlimit="10" stroke-dasharray="2.16000008, 2.16000008" fill="none"/><path d="m358.42 737.5 5.04 2.52-1.26-2.52 1.26-2.52-5.04 2.52z"/><path d="m358.42 737.5 5.04 2.52-1.26-2.52 1.26-2.52-5.04 2.52z" stroke="#000" stroke-miterlimit="10" fill="none"/><path d="m427.92 737.5c-21.61 0-32.42 3.83-32.42 11.5 0 7.6667-11.14 11.5-33.42 11.5" stroke="#000" stroke-miterlimit="10" fill="none"/><path d="m431.7 737.5-5.04-2.52 1.26 2.52-1.26 2.52 5.04-2.52z"/><path d="m431.7 737.5-5.04-2.52 1.26 2.52-1.26 2.52 5.04-2.52z" stroke="#000" stroke-miterlimit="10" fill="none"/><path d="m358.3 760.5 5.04 2.52-1.26-2.52 1.26-2.52-5.04 2.52z"/><path d="m358.3 760.5 5.04 2.52-1.26-2.52 1.26-2.52-5.04 2.52z" stroke="#000" stroke-miterlimit="10" fill="none"/><path d="m504.5 745.02h-72v-28.8h72v28.8z" fill="#ccc"/><path d="m504.5 745.02h-72v-28.8h72v28.8z" stroke="#6881b3" stroke-miterlimit="10" stroke-width="1.44" fill="none"/><path d="m498.74 716.22h-60.48v-4.32h60.48v4.32z" fill="#ccc"/><path d="m498.74 716.22h-60.48v-4.32h60.48v4.32z" stroke="#6881b3" stroke-miterlimit="10" stroke-width="1.44" fill="none"/><path d="m490.1 773.82h-43.2v-28.8h43.2v28.8z" fill="#ccc"/><path d="m490.1 773.82h-43.2v-28.8h43.2v28.8z" stroke="#6881b3" stroke-miterlimit="10" stroke-width="1.44" fill="none"/><path d="m446.9 723.42-7.2-21.6h57.6l-7.2 21.6h-43.2zm39.6-5.76h-36m38.16-5.76h-40.32m43.2-5.76h-46.08" fill="#ccc"/><path d="m446.9 723.42-7.2-21.6h57.6l-7.2 21.6h-43.2zm39.6-5.76h-36m38.16-5.76h-40.32m43.2-5.76h-46.08" stroke="#6881b3" stroke-miterlimit="10" stroke-width="1.44" fill="none"/><path d="m497.3 741.42h-18v-2.16h18v2.16z" fill="#fff"/><path d="m439.9 737.5c0-1.9882 1.6118-3.6 3.6-3.6s3.6 1.6118 3.6 3.6-1.6118 3.6-3.6 3.6-3.6-1.6118-3.6-3.6z" fill="#fff"/><g fill="#000000"><text style="word-spacing:0px;letter-spacing:0px" xml:space="preserve" transform="scale(1,-1)" font-size="9px" y="-779.40002" x="373.19998" font-family="sans-serif" line-height="125%"><tspan x="373.19998" y="-779.40002"/></text><g font-family="&apos;Meiryo UI&apos;">
<text style="text-anchor:middle;text-align:center" xml:space="preserve" transform="scale(1,-1)" font-size="13px" y="-764.22009" x="400.9671"><tspan font-size="9px" y="-764.22009" x="400.9671" fill="#000000">USB comms</tspan></text><g font-size="9px">
<text style="text-anchor:middle;text-align:center" xml:space="preserve" transform="scale(1,-1)" y="-701.79999" x="400.73419"><tspan x="400.73419" y="-701.79999">+5V power</tspan></text>
<text style="text-anchor:middle;text-align:center" xml:space="preserve" transform="scale(1,-1)" y="-681.31885" x="468.05835"><tspan x="468.05835" y="-681.31885">Printer</tspan></text>
<text style="text-anchor:middle;text-align:center" xml:space="preserve" transform="scale(1,-1)" y="-681.32983" x="310.79269"><tspan x="310.79269" y="-681.32983">RPi+CUPS</tspan></text>
<text style="text-anchor:middle;text-align:center" xml:space="preserve" transform="scale(1,-1)" y="-727.40002" x="221.91283"><tspan x="221.91283" y="-727.40002">Ethernet</tspan></text>
<text style="text-anchor:middle;text-align:center" xml:space="preserve" transform="scale(1,-1)" y="-681.40015" x="141.63837"><tspan x="141.63837" y="-681.40015">Router</tspan></text>
</g></g></g><g transform="matrix(.98132 0 0 -.98132 67.249 757.02)"><path d="m34.095 42.008h77.81m-72.691-15.224h64.223l8.6436 15.215 0.0404 9.5974h-78.212l-0.0133-9.3852z" fill="#cccccf"/><g fill="#666"><path d="m54.62 51.793v-9.8036l1.8007-15.806-17.406 0.40015-5.0018 15.806 0.20007 9.2034z"/><path d="m54.625 49.625v-4.0938zm0-4.0938v4.0938h3.8438c1.0816 0.07308 1.9117-1.0304 1.875-2.0625 0.0013-0.90349-0.59-1.9-1.5312-2.0312-1.3985-0.0017-4.1875 0-4.1875 0z"/><path d="m54.625 48.402v-1.6886zm0-1.6886v1.6886h55.202c0.55578 0 0.90631-0.3747 0.90631-0.85077 0-0.48577-0.38616-0.83785-0.9812-0.83788-13.721-0.000665-55.127 0-55.127 0z"/></g><path d="m49.281 45.531c-0.86419 0.14868-1.524 1.0531-1.5312 1.9375-0.0846 1.0445 0.74853 2.1803 1.8438 2.1562h5.0312v-4.0938c-1.649 0.000921-3.2885 0.000064-4.9375 0-0.13044-0.01131-0.2828-0.02124-0.40625 0z" fill="#0197fd"/><path fill="none" stroke="#666" d="m86.521 28.719h5.25c0.53558 0 1.0172-0.09267 1.375-0.03125 0.35779 0.06142 0.6035 0.25828 0.75 0.84375l2.0625 8.4062c0.29262 1.1855 0.2882 1.2228-0.75 1.375h-7.5m-1.1668-10.594h-35.667c-0.53558 0-1.0172-0.09267-1.375-0.03125-0.35779 0.06142-0.6035 0.25828-0.75 0.84375l-2.0625 8.4062c-0.29262 1.1855-0.2882 1.2228 0.75 1.375h40.463"/><path d="m49.5 28.688c-0.35779 0.06142-0.6035 0.25828-0.75 0.84375l-2.0625 8.4062c-0.29262 1.1855-0.2882 1.2228 0.75 1.375h7.5l1.1875-10.594h-5.25c-0.53558 0-1.0172-0.09267-1.375-0.03125z" fill="#0197fd"/><path d="m43.419-14.458h-0.07482c-0.57431-0.16773-0.8426 0.40334-1.2159 0.72098v8.5277c-0.15677 2.5859-0.48279 5.1637-0.70519 7.7464-0.03686 8.0321-0.0053 16.067-0.01579 24.101h2.1629l-0.15127-0.000001c0.45001-0.05813 1.1307 0.11443 1.442-0.08248-0.01054-8.0058 0.02107-16.014-0.01579-24.018-0.2224-2.5827-0.54842-5.1605-0.70519-7.7464v-8.5277l-0.72098-0.72098"/><path d="m99.702-14.458h-0.07482c-0.57431-0.16773-0.8426 0.40334-1.2159 0.72098v8.5277c-0.15677 2.5859-0.48279 5.1637-0.70519 7.7464-0.03686 8.0321-0.0053 16.067-0.01579 24.101h2.1629l-0.15127-0.000001c0.45001-0.05813 1.1307 0.11443 1.442-0.08248-0.0105-8.0058 0.0211-16.014-0.0158-24.018-0.2224-2.5827-0.54842-5.1605-0.70519-7.7464v-8.5277l-0.72098-0.72098"/><path d="m34.095 42.008h77.81m-72.691-15.224h64.223l8.6436 15.215 0.0404 9.5974h-78.212l-0.0133-9.3852z" stroke="#000" stroke-width="2" fill="none"/></g></g></svg>
