<?xml version="1.0" encoding="UTF-8" standalone="no"?>
<svg
   xmlns:dc="http://purl.org/dc/elements/1.1/"
   xmlns:cc="http://creativecommons.org/ns#"
   xmlns:rdf="http://www.w3.org/1999/02/22-rdf-syntax-ns#"
   xmlns:svg="http://www.w3.org/2000/svg"
   xmlns="http://www.w3.org/2000/svg"
   id="svg32"
   viewBox="-0.5 -0.5 488.60849 291.86441"
   height="291.86441"
   width="488.60849"
   version="1.1">
  <defs
     id="defs2">
    <marker
       orient="auto"
       refY="0"
       refX="0"
       id="marker5037"
       style="overflow:visible">
      <path
         id="path5035"
         d="M 0,0 5,-5 -12.5,0 5,5 Z"
         style="fill:#393568;fill-opacity:1;fill-rule:evenodd;stroke:#393568;stroke-width:1.00000003pt;stroke-opacity:1"
         transform="matrix(-0.4,0,0,-0.4,-4,0)" />
    </marker>
    <marker
       style="overflow:visible"
       id="Arrow1Mend"
       refX="0"
       refY="0"
       orient="auto">
      <path
         transform="matrix(-0.4,0,0,-0.4,-4,0)"
         style="fill:#393568;fill-opacity:1;fill-rule:evenodd;stroke:#393568;stroke-width:1.00000003pt;stroke-opacity:1"
         d="M 0,0 5,-5 -12.5,0 5,5 Z"
         id="path4618" />
    </marker>
    <marker
       style="overflow:visible"
       id="Arrow1Send"
       refX="0"
       refY="0"
       orient="auto">
      <path
         transform="matrix(-0.2,0,0,-0.2,-1.2,0)"
         style="fill:#000000;fill-opacity:1;fill-rule:evenodd;stroke:#000000;stroke-width:1.00000003pt;stroke-opacity:1"
         d="M 0,0 5,-5 -12.5,0 5,5 Z"
         id="path4624" />
    </marker>
    <marker
       style="overflow:visible"
       id="Arrow2Lend"
       refX="0"
       refY="0"
       orient="auto">
      <path
         transform="matrix(-1.1,0,0,-1.1,-1.1,0)"
         d="M 8.7185878,4.0337352 -2.2072895,0.01601326 8.7185884,-4.0017078 c -1.7454984,2.3720609 -1.7354408,5.6174519 -6e-7,8.035443 z"
         style="fill:#000000;fill-opacity:1;fill-rule:evenodd;stroke:#000000;stroke-width:0.625;stroke-linejoin:round;stroke-opacity:1"
         id="path4630" />
    </marker>
  </defs>
  <path
     d="m 240.24866,52.14542 c 1.873,0 3.04111,-1.611183 3.04111,-2.940409 0,-1.691743 -1.30909,-3.101528 -2.98069,-3.101528 -1.9737,0 -3.10153,1.651463 -3.10153,3.000829 0,1.711882 1.42993,3.041108 3.04111,3.041108 z m -15.1854,0 c 1.89314,0 3.06125,-1.611183 3.06125,-2.940409 0,-1.691743 -1.30909,-3.101528 -3.00083,-3.101528 -1.95356,0 -3.08139,1.651463 -3.08139,3.000829 0,1.711882 1.42992,3.041108 3.02097,3.041108 z m -15.16527,0 c 1.89314,0 3.06125,-1.611183 3.06125,-2.940409 0,-1.691743 -1.30908,-3.101528 -3.00083,-3.101528 -1.9737,0 -3.10153,1.651463 -3.10153,3.000829 0,1.711882 1.45007,3.041108 3.04111,3.041108 z m -15.16526,0 c 1.89314,0 3.04111,-1.611183 3.04111,-2.940409 0,-1.691743 -1.28894,-3.101528 -2.96055,-3.101528 -1.99382,0 -3.12165,1.651463 -3.12165,3.000829 0,1.711882 1.45007,3.041108 3.04109,3.041108 z m -27.34982,15.004146 c -0.74517,0 -1.4702,-0.765312 -1.4702,-1.591043 V 41.068534 c 0.0604,-0.523634 0.42294,-1.027129 1.53062,-1.530624 1.63133,-0.845871 6.90795,-1.732022 10.61367,-2.295936 V 17.545256 h 1.51049 V -0.5 h 3.04111 v 18.045256 h 1.51048 v 18.830706 c 14.80273,-1.429925 29.42422,-1.91328 43.84431,-1.329226 10.59353,0.483355 24.22817,1.00699 35.50645,3.90712 1.42993,0.443075 3.90712,1.228527 3.9474,2.175098 v 15.50764 h -37.86281 c -5.4176,0.120839 -8.37815,4.269636 -8.90179,7.512143 H 178.057 v 1.450065 c 0,0.604194 -0.46321,1.550764 -1.4702,1.550764 z m 62.1111,45.133274 c -1.91328,0 -4.41061,-1.55076 -4.41061,-4.45089 V 65.518243 c 0,-2.416775 2.09454,-4.350195 4.41061,-4.350195 h 42.6158 c 2.83971,0 4.57174,2.114678 4.57174,4.491174 v 42.132448 c 0,2.49733 -1.93342,4.49117 -4.51132,4.49117 z m 21.38846,-5.11551 6.08222,-6.02179 v -4.511316 l -4.55159,4.511316 v -9.908781 h -3.04111 v 9.928921 l -4.5516,-4.531456 v 4.511316 z m 11.25815,-14.420087 h 4.53145 l -4.53145,-4.511313 h 9.98933 v -3.041109 h -10.00947 l 4.57173,-4.491174 h -4.57173 l -6.08222,6.021798 z M 252.4131,82.214132 v -9.928918 l 4.55159,4.511313 v -4.531453 l -6.06208,-5.981519 -6.08222,6.001659 v 4.511313 l 4.5516,-4.511313 v 9.928918 z m -12.72835,10.533111 6.06207,-6.021798 -6.06207,-6.021798 h -4.57174 l 4.53146,4.491174 h -10.00948 v 3.041109 h 10.02962 l -4.5516,4.511313 z"
     pointer-events="none"
     id="path10"
     style="fill:#505050;stroke:none;stroke-width:2.0139792" />
  <path
     id="path4607"
     d="m 388.88866,156.26876 c 0,0 -0.35378,-35.68014 -28.14653,-54.9197 C 333.78567,82.688431 280.28694,66.57065 280.28694,66.57065"
     style="fill:none;stroke:#393568;stroke-width:2.0139792px;stroke-linecap:butt;stroke-linejoin:miter;stroke-opacity:1;marker-end:url(#Arrow1Mend)" />
  <g
     transform="matrix(2.0139793,0,0,2.0139793,-37.439196,-43.243124)"
     id="g4599">
    <path
       style="fill:#cccccc;stroke:#6881b3;stroke-width:1.89999998;stroke-linejoin:round;stroke-miterlimit:10"
       id="path16"
       pointer-events="none"
       stroke-miterlimit="10"
       d="m 173.95,137.57 h 71.86 L 260,155 H 160 Z M 176.5,100 H 243 l 1.98,37.14 h -70.45 z" />
    <path
       style="fill:none;stroke:#6881b3;stroke-width:1.89999998;stroke-linejoin:round;stroke-miterlimit:10"
       id="path18"
       pointer-events="none"
       stroke-miterlimit="10"
       d="m 177,141.9 h 66.99 m -71.43,4.77 h 75.86 m -56.65,4.28 h 34.49" />
    <path
       style="fill:#ffffff;stroke:none"
       id="path20"
       pointer-events="none"
       d="m 179.75,103.33 h 60.1 l 1.68,30.48 h -63.55 z" />
  </g>
  <path
     style="fill:none;stroke:#393568;stroke-width:2.0139792px;stroke-linecap:butt;stroke-linejoin:miter;stroke-opacity:1;marker-end:url(#marker5037)"
     d="m 58.89069,154.82653 c 0,0 0.03631,-27.01472 24.204063,-49.16849 C 107.26251,83.504269 162.13667,65.367468 162.13667,65.367468"
     id="path5033" />
  <g
     transform="translate(-140.40222,-62.980151)"
     id="g901">
    <rect
       style="fill:#bc1142;stroke-width:1.24999261"
       id="rect12"
       x="139.90222"
       y="217.771"
       width="115.19556"
       height="115.18682" />
    <path
       style="fill:#ffffff;stroke-width:1.24999261"
       id="path14"
       d="m 181.68948,231.34595 0.001,4.6e-4 c -0.4453,0.0138 -0.9248,0.17831 -1.46874,0.60746 -1.33249,-0.5138 -2.62448,-0.69229 -3.77973,0.3537 -1.78399,-0.23139 -2.3636,0.24608 -2.80285,0.80351 -0.39163,-0.009 -2.93073,-0.40256 -4.09498,1.33411 -2.92586,-0.34619 -3.8506,1.72099 -2.80286,3.64848 -0.59757,0.92505 -1.21676,1.83874 0.1807,3.60211 -0.49436,0.98219 -0.18792,2.04761 0.97658,3.3371 -0.30733,1.38074 0.29699,2.35486 1.3805,3.11411 -0.20265,1.88949 1.73261,2.98798 2.31048,3.37935 0.22193,1.10092 0.68448,2.13987 2.89523,2.71424 0.36457,1.64074 1.69311,1.92399 2.97974,2.26823 -4.25236,2.47162 -7.89896,5.72372 -7.87421,13.70242 l -0.62285,1.1111 c -4.87585,2.96498 -9.26258,12.49455 -2.40274,20.23988 0.44807,2.42461 1.19948,4.16622 1.86861,6.09371 1.00073,7.76683 7.53196,11.40344 9.25458,11.83356 2.52423,1.92261 5.21296,3.74698 8.85106,5.02484 3.42961,3.53686 7.14509,4.8851 10.88094,4.88285 0.0548,-5e-5 0.1105,6e-4 0.16534,0 3.73586,0.002 7.4512,-1.34587 10.88093,-4.88285 3.63798,-1.27786 6.32672,-3.10223 8.85107,-5.02484 1.72262,-0.43009 8.25371,-4.06685 9.25458,-11.83356 0.66904,-1.92749 1.42049,-3.6691 1.86861,-6.09371 6.85971,-7.74633 2.47298,-17.27615 -2.40298,-20.24113 L 225.41372,270.21 c 0.0246,-7.97846 -3.62185,-11.23031 -7.8742,-13.70242 1.28662,-0.34429 2.61524,-0.62756 2.97973,-2.26824 2.21062,-0.57451 2.67337,-1.61349 2.89524,-2.71423 0.57798,-0.39139 2.51335,-1.49 2.31073,-3.37936 1.08359,-0.75927 1.68761,-1.73349 1.38024,-3.11411 1.16451,-1.28949 1.471,-2.35486 0.97659,-3.3371 1.39774,-1.76274 0.77766,-2.67661 0.18095,-3.6016 1.04702,-1.92762 0.12287,-3.99473 -2.80412,-3.64848 -1.16391,-1.73662 -3.70197,-1.34225 -4.09447,-1.33412 -0.43923,-0.55742 -1.01865,-1.03489 -2.80261,-0.80352 -1.15529,-1.04599 -2.44723,-0.86751 -3.77972,-0.3537 -1.58224,-1.24847 -2.62924,-0.24767 -3.82511,0.13071 -1.91561,-0.62592 -2.35361,0.23141 -3.29473,0.58054 -2.08911,-0.44144 -2.7241,0.51963 -3.72573,1.53399 l -1.16496,-0.0231 c -3.15123,1.85686 -4.71635,5.63784 -5.27122,7.58145 -0.55515,-1.94411 -2.11699,-5.72496 -5.26747,-7.58145 l -1.16497,0.0231 c -1.00278,-1.01435 -1.63749,-1.97537 -3.7266,-1.53399 -0.94123,-0.34913 -1.37812,-1.20646 -3.29498,-0.58054 -0.78493,-0.24832 -1.50662,-0.76453 -2.35662,-0.73814 z m 31.70232,2.23086 c -0.43752,0.5409 -1.04867,1.06902 -0.40035,1.69037 0.89359,-0.56646 1.79274,-1.13235 3.91497,-1.53499 -0.47823,0.54122 -1.46699,1.08261 -0.86748,1.62386 1.12195,-0.43502 2.36324,-0.75084 3.73698,-0.93423 -0.65771,0.5492 -1.20644,1.08697 -0.66731,1.51237 1.20069,-0.37495 2.85461,-0.87994 4.47111,-0.44476 l -1.02322,1.04548 c -0.11362,0.1399 2.39349,0.10875 4.04836,0.13335 -0.60392,0.85159 -1.21972,1.67361 -1.57924,3.13623 0.164,0.16868 0.98413,0.075 1.75736,0 -0.79285,1.69436 -2.16974,2.12211 -2.49124,2.84711 0.4844,0.37226 1.15622,0.27523 1.89074,0.0221 -0.57076,1.19373 -1.76786,2.01173 -2.71373,2.98048 0.23918,0.17227 0.65688,0.27508 1.64612,0.1557 -0.87393,0.94287 -1.92962,1.80499 -3.18086,2.58023 0.22158,0.25991 0.98367,0.24941 1.69049,0.26673 -1.1334,1.12605 -2.59224,1.71011 -3.95948,2.44686 0.68147,0.47261 1.16869,0.36231 1.69049,0.35586 -0.96693,0.80639 -2.61111,1.22575 -4.13748,1.71249 0.29029,0.45796 0.58068,0.58316 1.20128,0.71172 -1.61562,0.90757 -3.92973,0.49279 -4.58236,0.95658 0.15757,0.45617 0.60194,0.75293 1.13449,1.00079 -2.60099,0.15329 -9.7142,-0.0961 -11.07769,-5.56071 2.66224,-2.96961 7.52146,-6.45459 15.87866,-10.76407 -6.50271,2.20949 -12.36993,5.15472 -17.2799,9.20733 -5.77397,-2.72899 -1.79374,-9.61182 1.0232,-12.34443 0.14283,0.72158 0.30474,1.17768 0.4895,1.31224 0.91723,-0.99798 1.66637,-2.02011 2.84711,-2.98048 0.004,0.56407 -0.28025,1.17629 0.42269,1.62386 0.63301,-0.86452 1.48873,-1.63624 2.62486,-2.29111 -0.54722,0.95796 -0.0941,1.24894 0.20015,1.64599 0.86779,-0.75524 1.69199,-1.52024 3.29224,-2.11286 z m -31.58982,4.8e-4 c 1.60024,0.59262 2.42437,1.35786 3.2921,2.11311 0.29421,-0.39701 0.7474,-0.68801 0.20018,-1.64599 1.13613,0.65482 1.99187,1.42637 2.62486,2.29086 0.70294,-0.44755 0.41883,-1.05952 0.42267,-1.62361 1.18072,0.96039 1.92986,1.98223 2.84711,2.98023 0.18477,-0.13451 0.34666,-0.59061 0.48949,-1.31224 2.81687,2.7326 6.79721,9.61544 1.02322,12.34442 -4.91097,-4.04997 -10.77557,-6.99446 -17.2749,-9.20369 8.35345,4.30722 13.21117,7.79195 15.87241,10.76006 -1.3635,5.46459 -8.47645,5.71396 -11.07744,5.56072 0.53255,-0.24786 0.9769,-0.54463 1.13446,-1.0008 -0.65263,-0.46378 -2.96673,-0.049 -4.58234,-0.95658 0.6206,-0.12856 0.91073,-0.25377 1.20101,-0.71172 -1.52636,-0.48679 -3.17035,-0.90613 -4.13722,-1.71249 0.52184,0.006 1.00908,0.11675 1.69049,-0.35586 -1.36711,-0.73671 -2.8261,-1.32074 -3.95948,-2.44686 0.70685,-0.0174 1.46899,-0.006 1.69049,-0.26673 -1.25124,-0.77515 -2.30698,-1.63736 -3.18085,-2.58023 0.98919,0.11937 1.40686,0.0165 1.64611,-0.15571 -0.94585,-0.96873 -2.14324,-1.78674 -2.71398,-2.98048 0.73447,0.25313 1.40649,0.35016 1.89099,-0.0221 -0.32142,-0.72506 -1.69861,-1.15278 -2.49149,-2.84711 0.77319,0.075 1.59337,0.16868 1.75737,0 -0.3589,-1.46199 -0.97458,-2.28386 -1.57849,-3.13548 1.65486,-0.0246 4.16197,0.006 4.04835,-0.13362 l -1.0232,-1.04524 c 1.61649,-0.43516 3.27036,0.0699 4.47111,0.44477 0.5391,-0.42538 -0.01,-0.9634 -0.66734,-1.51261 1.37374,0.18337 2.61498,0.49919 3.73698,0.93423 0.59946,-0.54124 -0.38926,-1.08239 -0.8675,-1.62362 2.12224,0.40263 3.02135,0.96826 3.91498,1.53474 0.64831,-0.62137 0.0371,-1.14949 -0.40035,-1.69036 z m 15.23491,22.50986 c 0.1437,-0.004 0.28764,-0.004 0.43184,7.4e-4 v -2.4e-4 c 4.09435,-0.0451 9.16407,3.05499 9.1437,5.97572 -0.0179,2.57786 -3.56061,4.66472 -9.11233,4.62497 -5.43647,-0.0649 -9.0972,-2.62261 -9.08432,-5.12047 0.0112,-1.99149 4.1666,-5.37997 8.62132,-5.48072 z m -13.15617,1.73637 c 0.80749,0.004 1.63761,0.0764 2.48323,0.21913 2.84824,0.47858 -13.64992,14.88367 -13.90366,11.67044 -0.23122,-7.46508 4.8456,-11.92531 11.42081,-11.88956 z m 26.32609,0.24581 c 6.57497,-0.0359 11.65232,4.42397 11.42107,11.88956 -0.2543,3.2136 -16.7524,-11.19181 -13.90367,-11.67019 0.84556,-0.14277 1.67561,-0.21497 2.48298,-0.21938 z m -2.77911,8.94445 a 10.596438,8.9811971 55.955 0 1 0.39891,0.005 10.596438,8.9811971 55.955 0 1 6.96921,18.95364 10.596438,8.9811971 55.955 1 1 -11.68443,-17.6799 10.596438,8.9811971 55.955 0 1 4.31634,-1.27924 z m -20.21863,0.50076 a 8.9811971,10.596438 34.045 0 1 4.70297,1.27061 8.9811971,10.596438 34.045 0 1 -11.68443,17.6799 8.9811971,10.596438 34.045 0 1 6.98121,-18.95114 z m 35.33729,5.41609 c 0.12566,-0.002 0.25842,0.0151 0.39842,0.0526 7.43321,4.24448 6.14183,13.68867 2.13249,16.91365 -3.53098,1.56849 -6.42647,-16.90115 -2.53087,-16.96615 z m -50.9722,0.24606 c 3.89523,0.0641 1.00015,18.53364 -2.53085,16.9649 -4.00936,-3.22448 -5.30085,-12.66742 2.13248,-16.9124 0.13999,-0.0375 0.27276,-0.0546 0.39841,-0.0526 z m 26.37235,12.70493 a 10.013816,9.2333206 0 0 1 9.77407,9.27932 10.013816,9.2333206 0 1 1 -20.02738,0 10.013816,9.2333206 0 0 1 10.25319,-9.27932 z m 21.89362,3.48273 c 0.7822,-0.0204 1.51424,0.19917 2.17448,0.70979 1.77774,1.77137 2.82062,8.44145 -0.29171,12.43555 -4.28623,5.94684 -10.08844,6.17834 -12.24993,4.52198 -2.26062,-2.13199 -0.5351,-8.75195 2.56373,-12.38143 v -9.7e-4 c 2.65961,-3.00274 5.45672,-5.22372 7.80333,-5.28485 z m -45.26474,1.41361 c 2.58112,-0.053 5.74935,1.98662 8.31733,4.96597 2.86411,3.45036 4.16985,9.5122 1.77974,11.29919 -2.26123,1.36411 -7.7527,0.80224 -11.65593,-4.80447 -2.63236,-4.70473 -2.29323,-9.4922 -0.44503,-10.89869 0.60459,-0.36827 1.28137,-0.54719 2.00411,-0.56203 z m 23.94486,16.51866 c 3.90786,0.0241 8.65295,1.43174 8.66295,3.26135 0.0668,1.89524 -4.89559,6.17722 -9.69831,6.09434 -4.97397,0.21454 -9.85144,-4.07423 -9.78756,-5.56072 -0.0744,-2.17948 6.05646,-3.88122 10.05431,-3.7811 0.25141,-0.0113 0.50819,-0.0156 0.7687,-0.0139 z" />
  </g>
</svg>
