<?xml version="1.0" encoding="UTF-8"?>
<svg width="100" height="100.02" version="1.1" xmlns="http://www.w3.org/2000/svg" xmlns:xlink="http://www.w3.org/1999/xlink">
 <defs>
  <linearGradient id="n" x1="-1527.4" x2="-1086.1" y1="1387.5" y2="454.14" gradientTransform="translate(2104,48)" gradientUnits="userSpaceOnUse">
   <stop stop-color="#1011a1" offset="0"/>
   <stop stop-color="#6969e1" offset="1"/>
  </linearGradient>
  <linearGradient id="m" x1="-933.38" x2="-316.78" y1="680.41" y2="1721.3" gradientTransform="translate(2104,48)" gradientUnits="userSpaceOnUse">
   <stop stop-color="#b40e0e" offset="0"/>
   <stop stop-color="#ff5959" offset="1"/>
  </linearGradient>
  <linearGradient id="l" x1="-678.82" x2="-1550" y1="1794.8" y2="1721.3" gradientTransform="translate(2104,48)" gradientUnits="userSpaceOnUse">
   <stop stop-color="#01a300" offset="0"/>
   <stop stop-color="#01df00" offset="1"/>
  </linearGradient>
  <linearGradient id="k" x1="-984.29" x2="-995.61" y1="1472.4" y2="1093.4" gradientTransform="translate(2104,48)" gradientUnits="userSpaceOnUse">
   <stop stop-color="#848484" offset="0"/>
   <stop stop-color="#d2d2d2" offset="1"/>
  </linearGradient>
  <filter id="o">
   <feGaussianBlur stdDeviation="9.0766588"/>
  </filter>
  <linearGradient id="j" x1="-1238" x2="-555.82" y1="919.71" y2="917.51" gradientTransform="matrix(1.9189 .98349 -.45611 .88992 3476 1285.3)" gradientUnits="userSpaceOnUse">
   <stop stop-color="#cbcaf2" offset="0"/>
   <stop stop-color="#5555d2" stop-opacity="0" offset=".026368"/>
   <stop stop-color="#fff" stop-opacity="0" offset="1"/>
  </linearGradient>
  <linearGradient id="i" x1="-1238" x2="-552.84" y1="919.71" y2="913.41" gradientTransform="matrix(-1.9407 .93973 -.43582 -.90004 -412.22 3168.7)" gradientUnits="userSpaceOnUse">
   <stop stop-color="#321e1d" offset="0"/>
   <stop stop-color="#555548" stop-opacity="0" offset=".020122"/>
   <stop stop-color="#fff" stop-opacity="0" offset="1"/>
  </linearGradient>
  <linearGradient id="h" x1="-1238" x2="-555.84" y1="919.71" y2="915.3" gradientTransform="matrix(.027003 -2.1561 .90369 .013145 114.37 -755.43)" gradientUnits="userSpaceOnUse">
   <stop stop-color="#321e1d" offset="0"/>
   <stop stop-color="#555548" stop-opacity="0" offset=".020122"/>
   <stop stop-color="#fff" stop-opacity="0" offset="1"/>
  </linearGradient>
  <linearGradient id="g" x1="-1238" x2="-554.9" y1="919.71" y2="917.62" gradientTransform="matrix(3.1363 .0026181 .064311 .76015 4936.1 68.133)" gradientUnits="userSpaceOnUse">
   <stop stop-color="#f6b1b2" offset="0"/>
   <stop stop-color="#c51f1f" stop-opacity="0" offset=".028216"/>
   <stop stop-color="#fff" stop-opacity="0" offset="1"/>
  </linearGradient>
  <linearGradient id="f" x1="-1229.3" x2="-555.82" y1="918.44" y2="917.51" gradientTransform="matrix(-2.151 -.070258 -.038212 -.48211 -1498.5 1058)" gradientUnits="userSpaceOnUse">
   <stop stop-color="#321e1d" offset="0"/>
   <stop stop-color="#5a5bd7" stop-opacity="0" offset=".020122"/>
   <stop stop-color="#fff" stop-opacity="0" offset="1"/>
  </linearGradient>
  <linearGradient id="e" x1="-1237.1" x2="-555.82" y1="920.42" y2="917.51" gradientTransform="matrix(-1.3798 -1.657 .76845 -.63991 -2195.6 413.89)" gradientUnits="userSpaceOnUse">
   <stop stop-color="#321e1d" offset="0"/>
   <stop stop-color="#555548" stop-opacity="0" offset=".015467"/>
   <stop stop-color="#fff" stop-opacity="0" offset="1"/>
  </linearGradient>
  <linearGradient id="d" x1="-1242.2" x2="-551.13" y1="915.74" y2="910.65" gradientTransform="matrix(.85312 -1.9803 .9184 .39565 2182.3 -885.93)" gradientUnits="userSpaceOnUse">
   <stop stop-color="#321e1d" offset="0"/>
   <stop stop-color="#555548" stop-opacity="0" offset=".017393"/>
   <stop stop-color="#fff" stop-opacity="0" offset="1"/>
  </linearGradient>
  <linearGradient id="c" x1="-1238" x2="-555.87" y1="919.71" y2="915.48" gradientTransform="matrix(1.383 1.6543 -.76722 .64139 2529.8 3432.9)" gradientUnits="userSpaceOnUse">
   <stop stop-color="#cbf595" offset="0"/>
   <stop stop-color="#01da00" stop-opacity="0" offset=".018269"/>
   <stop stop-color="#fff" stop-opacity="0" offset="1"/>
  </linearGradient>
  <linearGradient id="b" x1="-1242.6" x2="-866.87" y1="918.1" y2="917.19" gradientTransform="matrix(1.383 1.6543 -.76722 .64139 2930.5 3096.9)" gradientUnits="userSpaceOnUse">
   <stop stop-color="#ebebec" offset="0"/>
   <stop stop-color="#d3d3d3" stop-opacity="0" offset=".0051829"/>
   <stop stop-color="#fff" stop-opacity="0" offset="1"/>
  </linearGradient>
  <linearGradient id="a" x1="-1238" x2="-555.82" y1="919.71" y2="917.51" gradientTransform="matrix(-.83179 1.9893 -.83312 -.35033 1447.6 4603.7)" gradientUnits="userSpaceOnUse">
   <stop stop-color="#32691d" offset="0"/>
   <stop stop-color="#01d200" stop-opacity="0" offset=".020122"/>
   <stop stop-color="#fff" stop-opacity="0" offset="1"/>
  </linearGradient>
 </defs>
 <g transform="matrix(.045911 0 0 .045911 .69866 2.6247)">
  <path d="m1971.6 1939.9-1797.1-0.1258c-11.029-1.2221-8.5403-6.713-5.9958-12.222l900.88-1799.5c3.3139-5.2772 6.2883-4.4372 9.0861-0.4108l900.86 1799.4c4.5781 9.1667 1.5811 13.15-7.7393 12.807z" fill="none" filter="url(#o)" opacity=".53975" stroke="#3a393b" stroke-width="22.5"/>
  <g>
   <path d="m1143.3 1084.3-984.62 841.74 901.82-1802z" fill="url(#n)" stroke="#000"/>
   <path d="m1060.6 125.62c13.415 80.716 11.94 94.79-18.035 140.07l-796.61 1579.1-84.603 76.927z" fill="url(#j)"/>
   <path d="m1147.2 1083.2-50.167 40.054-52.789-888.73c-4.0533-47.434-6.2416-43.171-6.5492-68.17l25.1-48.952z" fill="url(#f)"/>
   <path d="m1188.9 1610-127.96-1486.1 902.97 1802.3z" fill="url(#m)" stroke="#000"/>
   <path d="m1060.9 120.08c24.175 30.046 39.608 75.94 48.965 112.18l179.37 1415.1-98.428-38.439z" fill="url(#g)"/>
   <path d="m743.41 1423.8 1221.5 502.17-1806-0.1985z" fill="url(#l)" stroke="#000"/>
   <path d="m1963.7 1926.5-56.714-24.617-795.99-1603.1c-21.947-24.378-34.345-39.623-41.219-51.952-1.1264-32.319-2.943-61.081-9.9138-126.26z" fill="url(#i)"/>
   <path d="m745.27 1425 397.42-339.04 55.33 523.57z" fill="url(#k)" stroke="#000" stroke-width="4"/>
   <path d="m742.73 1426.3c17.482 6.7504 20.842 8.2827 35.806 14.42-16.159 13.83-69.88 86.488-91.428 103.85l-428.41 362.7-98.82 18.388z" fill="url(#c)"/>
   <path d="m1962.9 1925.5-68.064-1.0486-1174.9-479.63 23.505-18.717 470.76 191.94z" fill="url(#a)"/>
   <path d="m159.98 1925.4 50.296-42.886 1643 0.1531 110.33 42.727-1803.6 0.01z" fill="url(#h)"/>
   <path d="m1199.8 1611-2.1608-22.339 610.59 235.17c39.456 18.766 69.106 27.299 88.825 43.327 12.695 5.2081 34.724 12.634 46.114 16.474 13.926 9.2219 11.506 23.958 20.318 41.543z" fill="url(#d)"/>
  </g>
  <path d="m1958.6 1931.8-1797.1-0.1258c-11.029-1.2221-8.5403-6.713-5.9958-12.222l900.88-1799.5c3.3139-5.2772 6.2883-4.4372 9.0861-0.4108l900.86 1799.4c4.5781 9.1667 1.5811 13.15-7.7393 12.807z" fill="none" stroke="#000" stroke-width="12.2"/>
  <path d="m160.09 1924.2 25.525-54.532 52.068-38.569 899.33-780.87c4.7998 18.518 1.8803 6.9336 6.1315 33.989z" fill="url(#e)"/>
  <path d="m1141 1090.6c-7.8922 86.608-17.716 81.544-53.247 118.02l-263.41 244.7-74.944-29.237z" fill="url(#b)"/>
 </g>
</svg>
